HIERARCHY
ROOT hip
{
	OFFSET 0.000000 0.000000 0.000000 
	CHANNELS 6 Xposition Yposition Zposition Xrotation Zrotation Yrotation
	JOINT abdomen
	{
		OFFSET 0.000000 3.402643 0.000000 
		CHANNELS 3 Xrotation Zrotation Yrotation
		JOINT chest
		{
			OFFSET 0.000000 8.438565 -0.680529 
			CHANNELS 3 Xrotation Zrotation Yrotation
			JOINT neck
			{
				OFFSET 0.000000 10.207942 -0.272212 
				CHANNELS 3 Xrotation Zrotation Yrotation
				JOINT head
				{
					OFFSET 0.000000 3.130431 0.000000 
					CHANNELS 3 Xrotation Zrotation Yrotation
					End Site
					{
						OFFSET 0.000000 3.130435 0.000000 
					}
				}
			}
			JOINT lCollar
			{
				OFFSET 3.470700 6.669187 -0.816635 
				CHANNELS 3 Yrotation Zrotation Xrotation
				JOINT lShldr
				{
					OFFSET 3.198488 0.000000 0.000000 
					CHANNELS 3 Zrotation Yrotation Xrotation
					JOINT lForeArm
					{
						OFFSET 10.139888 0.000000 0.000000 
						CHANNELS 3 Yrotation Zrotation Xrotation
						JOINT lHand
						{
							OFFSET 8.370511 0.000000 0.000000 
							CHANNELS 3 Zrotation Yrotation Xrotation
							End Site
							{
								OFFSET 4.083176 0.000000 0.000000 
							}
						}
					}
				}
			}
			JOINT rCollar
			{
				OFFSET -3.470700 6.669187 -0.816635 
				CHANNELS 3 Yrotation Zrotation Xrotation
				JOINT rShldr
				{
					OFFSET -3.198488 0.000000 0.000000 
					CHANNELS 3 Zrotation Yrotation Xrotation
					JOINT rForeArm
					{
						OFFSET -10.139888 0.000000 0.000000 
						CHANNELS 3 Yrotation Zrotation Xrotation
						JOINT rHand
						{
							OFFSET -8.370511 0.000000 0.000000 
							CHANNELS 3 Zrotation Yrotation Xrotation
							End Site
							{
								OFFSET -4.083176 0.000000 0.000000 
							}
						}
					}
				}
			}
		}
	}
	JOINT lThigh
	{
		OFFSET 5.308129 -1.633274 1.361059 
		CHANNELS 3 Xrotation Zrotation Yrotation
		JOINT lShin
		{
			OFFSET -2.041588 -20.007561 0.000000 
			CHANNELS 3 Xrotation Zrotation Yrotation
			JOINT lFoot
			{
				OFFSET 0.000000 -19.190928 -1.224953 
				CHANNELS 3 Xrotation Yrotation Zrotation
				End Site
				{
					OFFSET 0.000000 -2.449906 4.627600 
				}
			}
		}
	}
	JOINT rThigh
	{
		OFFSET -5.308129 -1.633274 1.361059 
		CHANNELS 3 Xrotation Zrotation Yrotation
		JOINT rShin
		{
			OFFSET 2.041588 -20.007561 0.000000 
			CHANNELS 3 Xrotation Zrotation Yrotation
			JOINT rFoot
			{
				OFFSET 0.000000 -19.190928 -1.224953 
				CHANNELS 3 Xrotation Yrotation Zrotation
				End Site
				{
					OFFSET 0.000000 -2.449906 4.627600 
				}
			}
		}
	}
}
MOTION
Frames: 9
Frame Time: 0.016667
-13.797920 48.176830 131.770905 -25.349146 -6.701915 -11.417801 0.000000 0.000000 0.000000 23.412754 3.216786 -5.643394 22.666256 -0.175781 -0.078155 -32.105843 -10.512590 -45.482574 1.582282 -6.420958 0.177889 -62.798378 26.917122 8.907794 -51.239681 -7.747902 8.018516 2.238489 -5.657329 -3.546881 -18.467550 0.405426 0.101888 49.406300 -21.462294 15.502964 47.539764 14.531632 10.819287 -3.291050 -0.413413 -3.605244 33.950886 13.962587 0.582576 0.202152 -0.165449 23.714806 -7.586592 0.145385 0.023579 37.485348 -19.283865 -2.021188 2.218843 11.627132 -10.147718 -12.285150 -0.017591 0.034628 
-13.734799 48.121117 131.710983 -24.977665 -6.834398 -12.621265 0.000000 0.000000 0.000000 23.226854 3.065219 -4.840630 22.314693 -0.175781 -0.078155 -32.110806 -10.509159 -46.886364 1.758008 -6.068559 0.187518 -62.753784 25.868507 8.465169 -50.049248 -9.083580 9.544839 2.238489 -5.657329 -3.546881 -18.818556 0.238156 0.046218 49.770916 -21.616617 15.487686 47.481068 14.322032 10.541742 -3.291050 -0.413413 -3.605244 33.919670 13.444818 0.362613 -0.268284 -0.341753 24.430286 -7.572044 0.301534 0.084201 36.409046 -19.810043 -1.561226 2.335766 11.265207 -9.461798 -12.284563 -0.210409 0.317889 
-13.682751 48.098839 131.649780 -24.619539 -6.962391 -13.824699 0.000000 0.000000 0.000000 23.050617 3.056977 -4.498281 22.139488 -0.341796 -0.136775 -32.131908 -10.646286 -47.836300 1.935861 -6.067330 0.206911 -62.920071 25.332605 8.096275 -49.457008 -9.717860 10.386161 2.238489 -5.657329 -3.546881 -18.652319 0.074606 -0.018518 50.139820 -21.963182 15.481942 47.554394 13.957770 10.211267 -3.291050 -0.413413 -3.605244 34.049244 13.123629 0.235249 -0.713123 -0.537414 25.527376 -7.420482 0.064392 0.222054 35.853142 -20.142738 -1.997219 2.374498 11.066900 -8.055931 -12.294289 -0.127855 -0.032231 
-13.619634 48.076550 131.589874 -24.253946 -7.088071 -14.666073 0.000000 0.000000 0.000000 22.696894 3.067359 -4.341732 21.787983 -0.341796 -0.146540 -32.124428 -10.649406 -48.192410 2.468420 -6.073109 0.255349 -62.894924 24.983223 7.921013 -49.177505 -10.112378 10.581728 2.238489 -5.657329 -3.546881 -17.939564 -0.086366 -0.065036 50.689400 -22.294975 15.470958 47.614040 13.488027 9.657637 -3.291050 -0.413413 -3.605244 34.182323 12.771156 0.651272 -1.060592 -0.556875 26.588816 -7.955610 0.220117 0.090724 34.923836 -20.736763 -1.739022 2.854700 11.143056 -7.085251 -12.477208 -0.394601 0.212952 
-13.570181 48.065411 131.550781 -23.893328 -7.066937 -15.590978 0.000000 0.000000 0.000000 22.520245 3.068021 -4.175434 21.789013 -0.507809 -0.214922 -32.131016 -10.643765 -48.018177 2.994183 -6.233266 0.324169 -62.694859 24.466290 7.923456 -49.221939 -10.327032 10.682999 2.238489 -5.657329 -3.546881 -17.764252 -0.254236 -0.120899 51.059803 -22.447021 15.285598 47.716431 13.226585 9.507127 -3.291050 -0.413413 -3.605244 33.983482 12.215704 0.448335 -1.380954 -0.538233 27.472479 -7.953604 0.280600 0.107877 34.120537 -21.034433 -1.752032 3.028321 11.466888 -6.386184 -12.310107 -0.388040 0.053405 
-13.522022 48.054260 131.522781 -23.540638 -7.031509 -16.337883 0.000000 0.000000 0.000000 22.352365 3.079046 -3.833606 21.789013 -0.507809 -0.214922 -32.129807 -10.646502 -47.491234 2.994183 -6.233266 0.324169 -62.505856 24.294704 7.921580 -49.051991 -10.353717 10.884709 2.238489 -5.657329 -3.546881 -17.940029 -0.253865 -0.120780 51.232380 -22.618402 15.449521 47.745251 13.338229 9.560136 -3.291050 -0.413413 -3.605244 33.736332 11.864060 0.476862 -1.347519 -0.536995 28.516476 -8.285643 0.278748 0.129458 33.286243 -21.402151 -1.808436 3.216516 11.443781 -5.601874 -12.293722 -0.232174 0.110823 
-13.473865 48.031979 131.494766 -23.187723 -7.010853 -16.908022 0.000000 0.000000 0.000000 21.821680 3.091008 -3.158656 21.789013 -0.507809 -0.214922 -32.134590 -10.643709 -46.438107 2.284454 -6.425489 0.255392 -62.336876 24.474270 7.932110 -48.852036 -10.294106 10.693984 2.238489 -5.657329 -3.546881 -18.115345 -0.086167 -0.064971 51.073223 -22.795877 15.638934 47.628048 13.588342 9.840448 -3.291050 -0.413413 -3.605244 33.343513 11.365011 0.607967 -1.198661 -0.362073 28.877937 -8.453785 0.218823 0.102010 32.535488 -21.559103 -1.778335 3.380742 11.209774 -5.046559 -12.470343 -0.152341 0.151194 
-13.427002 48.009693 131.477829 -22.836220 -6.989884 -17.468449 0.000000 0.000000 0.000000 21.649513 2.935760 -2.874825 21.964796 -0.507809 -0.214922 -32.123676 -10.648482 -45.204830 1.760258 -6.419820 0.197273 -62.352516 24.648056 7.932090 -48.575565 -9.899377 10.532488 2.238489 -5.657329 -3.546881 -18.115345 -0.086167 -0.064971 50.877190 -22.814617 15.822410 47.339893 13.873534 10.375459 -3.289676 -0.589728 -3.604926 32.885593 10.994309 0.295029 -1.016425 -0.188690 29.619614 -8.298112 0.192936 0.100361 31.878036 -21.928255 -2.001790 3.887543 11.078883 -4.142617 -12.469866 -0.204865 0.124430 
-13.391208 47.987411 131.459579 -22.494625 -6.795182 -17.933458 0.000000 0.000000 0.000000 21.296196 2.936151 -2.718280 21.964796 -0.507809 -0.214922 -32.131718 -10.649630 -43.619278 1.582282 -6.420958 0.177889 -62.355236 24.829113 7.936022 -48.520741 -9.588082 10.240283 2.238489 -5.657329 -3.546881 -17.773415 0.074321 -0.018612 50.534206 -22.819838 15.828113 47.235580 14.136436 10.701924 -3.289676 -0.589728 -3.604926 32.668564 10.456778 0.292925 -0.668326 -0.012115 30.081652 -8.830453 0.345937 0.141160 31.334572 -22.097227 -2.160419 4.101215 10.996684 -3.571923 -12.289558 -0.415351 0.017826 
